<svg width="28" height="28" viewBox="0 0 28 28" fill="none" xmlns="http://www.w3.org/2000/svg">
<path d="M22.125 14.5H5.875C4.82031 14.5 4 15.3594 4 16.375C4 17.4297 4.82031 18.25 5.875 18.25H22.125C23.1406 18.25 24 17.4297 24 16.375C24 15.3594 23.1406 14.5 22.125 14.5ZM22.75 19.5H5.25C4.89844 19.5 4.625 19.8125 4.625 20.125V20.75C4.625 22.1562 5.71875 23.25 7.125 23.25H20.875C22.2422 23.25 23.375 22.1562 23.375 20.75V20.125C23.375 19.8125 23.0625 19.5 22.75 19.5ZM6.26562 13.25H21.6953C23.0234 13.25 23.8047 11.5703 23.0625 10.3203C21.5 7.78125 18.0234 5.78906 14 5.75C9.9375 5.78906 6.5 7.78125 4.89844 10.3203C4.15625 11.5703 4.9375 13.25 6.26562 13.25ZM19 8.875C19.3125 8.875 19.625 9.1875 19.625 9.5C19.625 9.85156 19.3125 10.125 19 10.125C18.6484 10.125 18.375 9.85156 18.375 9.5C18.375 9.1875 18.6484 8.875 19 8.875ZM14 7.625C14.3125 7.625 14.625 7.9375 14.625 8.25C14.625 8.60156 14.3125 8.875 14 8.875C13.6484 8.875 13.375 8.60156 13.375 8.25C13.375 7.9375 13.6484 7.625 14 7.625ZM9 8.875C9.3125 8.875 9.625 9.1875 9.625 9.5C9.625 9.85156 9.3125 10.125 9 10.125C8.64844 10.125 8.375 9.85156 8.375 9.5C8.375 9.1875 8.64844 8.875 9 8.875Z" fill="#E3E0E8"/>
</svg>
