<svg viewBox="0 0 24 24" fill="none" xmlns="http://www.w3.org/2000/svg">
    <path d="M22.814 9.031H20.864C19.864 9.031 19.679 8.267 19.679 7.324C19.68 3.279 16.407 0 12.371 0H7.309C3.272 0 0 3.279 0 7.324V16.676C0 20.721 3.272 24 7.309 24H16.692C20.728 24 24 20.721 24 16.676V10.219C24 9.562 23.469 9.031 22.814 9.031ZM7.386 6H11.615C12.38 6 13 6.671 13 7.5C13 8.329 12.38 9 11.614 9H7.386C6.62 9 6 8.329 6 7.5C6 6.671 6.62 6 7.386 6ZM16.52 18H7.48C6.663 18 6 17.328 6 16.5C6 15.67 6.663 15 7.48 15H16.519C17.336 15 17.999 15.67 17.999 16.5C18 17.328 17.337 18 16.52 18Z" fill="#E3E0E8"/>
</svg>
