<svg width="28" height="39" viewBox="0 0 28 39" fill="none" xmlns="http://www.w3.org/2000/svg">
<path d="M23.7266 26.8047L19.8203 22.8984C19.625 22.7422 19.3906 22.625 19.1562 22.625H18.5312C19.5859 21.2578 20.25 19.5391 20.25 17.625C20.25 13.1719 16.5781 9.5 12.125 9.5C7.63281 9.5 4 13.1719 4 17.625C4 22.1172 7.63281 25.75 12.125 25.75C14 25.75 15.7188 25.125 17.125 24.0312V24.6953C17.125 24.9297 17.2031 25.1641 17.3984 25.3594L21.2656 29.2266C21.6562 29.6172 22.2422 29.6172 22.5938 29.2266L23.6875 28.1328C24.0781 27.7812 24.0781 27.1953 23.7266 26.8047ZM12.125 22.625C9.35156 22.625 7.125 20.3984 7.125 17.625C7.125 14.8906 9.35156 12.625 12.125 12.625C14.8594 12.625 17.125 14.8906 17.125 17.625C17.125 20.3984 14.8594 22.625 12.125 22.625Z" fill="#F1EDED"/>
</svg>
