<svg width="28" height="32" viewBox="0 0 28 32" fill="none" xmlns="http://www.w3.org/2000/svg">
<path d="M20.25 23C22.3203 23 24 21.3203 24 19.25V11.75C24 9.67969 22.3203 8 20.25 8H16.9688C16.6953 8 16.5 8.23438 16.5 8.46875V10.0312C16.5 10.3047 16.6953 10.5 16.9688 10.5H20.25C20.9141 10.5 21.5 11.0859 21.5 11.75V19.25C21.5 19.9531 20.9141 20.5 20.25 20.5H16.9688C16.6953 20.5 16.5 20.7344 16.5 20.9688V22.5312C16.5 22.8047 16.6953 23 16.9688 23H20.25ZM18.4141 15.1484L11.8516 8.58594C11.2656 8 10.25 8.42969 10.25 9.25V13H4.9375C4.39062 13 4 13.4297 4 13.9375V17.6875C4 18.2344 4.39062 18.625 4.9375 18.625H10.25V22.375C10.25 23.2344 11.2656 23.625 11.8516 23.0391L18.4141 16.4766C18.7656 16.125 18.7656 15.5391 18.4141 15.1484Z" fill="#E3E0E8"/>
</svg>
