<svg width="28" height="32" viewBox="0 0 28 32" fill="none" xmlns="http://www.w3.org/2000/svg">
<path d="M25.875 13.625H23.375V11.125C23.375 10.8125 23.0625 10.5 22.75 10.5H21.5C21.1484 10.5 20.875 10.8125 20.875 11.125V13.625H18.375C18.0234 13.625 17.75 13.9375 17.75 14.25V15.5C17.75 15.8516 18.0234 16.125 18.375 16.125H20.875V18.625C20.875 18.9766 21.1484 19.25 21.5 19.25H22.75C23.0625 19.25 23.375 18.9766 23.375 18.625V16.125H25.875C26.1875 16.125 26.5 15.8516 26.5 15.5V14.25C26.5 13.9375 26.1875 13.625 25.875 13.625ZM10.25 15.5C12.9844 15.5 15.25 13.2734 15.25 10.5C15.25 7.76562 12.9844 5.5 10.25 5.5C7.47656 5.5 5.25 7.76562 5.25 10.5C5.25 13.2734 7.47656 15.5 10.25 15.5ZM13.7266 16.75H13.0625C12.2031 17.1797 11.2656 17.375 10.25 17.375C9.23438 17.375 8.25781 17.1797 7.39844 16.75H6.73438C3.84375 16.75 1.5 19.1328 1.5 22.0234V23.625C1.5 24.6797 2.32031 25.5 3.375 25.5H17.125C18.1406 25.5 19 24.6797 19 23.625V22.0234C19 19.1328 16.6172 16.75 13.7266 16.75Z" fill="#E3E0E8"/>
</svg>
